<?xml version="1.0" encoding="utf-8"?>
<!-- Generator: Adobe Illustrator 24.0.1, SVG Export Plug-In . SVG Version: 6.00 Build 0)  -->
<svg version="1.1" xmlns="http://www.w3.org/2000/svg" xmlns:xlink="http://www.w3.org/1999/xlink" x="0px" y="0px"
	 viewBox="0 0 208.7 140.3" style="enable-background:new 0 0 208.7 140.3;" xml:space="preserve">
<style type="text/css">
	.st0{fill:#4E4F4F;}
</style>
<g id="Layer_1">
</g>
<g id="Layer_2">
	<g>
		<path class="st0" d="M22.5,7c-2.8,8.7-5.5,17.3-7.4,26.2c-0.9,4.3-1.6,8.7-2.2,13c-0.4,3.3-1.5,7.3,0.6,10.2
			c0.5,0.7,1.3,0.8,2,0.3c2.6-2.3,2.6-6.3,3-9.6c0.5-4.1,1.2-8.1,1.7-12.2c1.2-9.1,2.5-18.2,4.3-27.2C24.9,6.2,22.9,5.7,22.5,7
			L22.5,7z"/>
	</g>
	<g>
		<path class="st0" d="M39.6,7.6c-7.5,7.3-14.2,15-20.6,23.3c-1.8,2.3-0.2,5.8,2.9,5c3.2-0.8,5.3,3.6,6.5,5.8c1.4,2.6,2.2,5,2.2,8
			c0,2.2,0.3,4.8,3.1,4.7c1.4-0.1,2.8-1,3.1-2.4c2.3-8.4-6.1-25.4-16.5-21.9c1.1,1.5,2.3,2.9,3.4,4.4c5.7-8.6,11.7-17.1,17.9-25.3
			C42.5,8,40.6,6.6,39.6,7.6L39.6,7.6z"/>
	</g>
	<g>
		<path class="st0" d="M56.7,19.1C46.4,16.6,36,31.8,37.6,41c0.9,4.9,6.1,7.5,10.4,4.6c5.6-3.8,6.1-12.1,9-17.6
			c-1.1-0.5-2.2-0.9-3.2-1.4c-1.6,5.6-4.4,15.8-0.6,20.8c1,1.4,3.5,1.9,4.4,0c1.5-3.1,0.8-5.7,0.5-9.1c-0.4-3.8-0.6-7.5-0.8-11.3
			c-0.1-1.7-2.4-2.4-3.3-0.9c-1.6,2.5-3.9,4.6-5.7,6.9c-1.1,1.4-2,2.9-3,4.4c-0.5,0.9-0.7,2.3,0,0.2c1.6-5.1,4.3-15.3,11.1-15.4
			C58,22.3,58.5,19.6,56.7,19.1L56.7,19.1z"/>
	</g>
	<g>
		<path class="st0" d="M74.8,22.4c-8.6-0.5-18.1,12.8-16.2,20.8c0.9,4,5.3,7.7,9.4,5.4c4.2-2.3,6.7-9.9,6.4-14.4
			c-0.1-1.3-1.6-2-2.6-1.1c-2.9,2.6-4.6,7.7-8,9.5c0.9-0.1,1.9-0.2,2.8-0.4c-3.1-0.7-0.1-7.8,0.6-9.6c1.5-3.5,3.9-8,7.8-8.9
			C75.8,23.6,75.6,22.5,74.8,22.4L74.8,22.4z"/>
	</g>
	<g>
		<path class="st0" d="M73.9,25.8c-1.3,4.5-2.2,9-1.8,13.7c0.3,3.5,0.6,8.1,4.6,9.1c1,0.2,1.8-0.2,2.3-1c2.1-2.8,0.2-6.1-0.5-9.1
			c-1-4.1-1.7-8.2-1.5-12.4C77,24.4,74.3,24.1,73.9,25.8L73.9,25.8z"/>
	</g>
	<g>
		<path class="st0" d="M89.1,12.8c-0.2,6.8-0.7,13.5-0.8,20.3c-0.1,5-1.2,11.2,1.4,15.7c0.6,1,2.1,1.8,3.3,1.3
			c0.5-0.2,0.9-0.4,1.3-0.7c0.8-0.7,1-1.9,0.7-2.8c-1.2-5.3-1.2-10.8-1.6-16.1c-0.4-5.9-1.2-11.8-1.7-17.6
			C91.5,11.2,89.1,11.2,89.1,12.8L89.1,12.8z"/>
	</g>
	<g>
		<path class="st0" d="M85.9,32.2c5.8-0.1,14.5,1.8,19.7-1.3c1-0.6,1.1-2.2,0-2.8c-5.6-3.1-14.3-0.1-20.1,1.3
			C83.9,29.8,84.3,32.3,85.9,32.2L85.9,32.2z"/>
	</g>
	<g>
		<path class="st0" d="M109.4,27.5c-2.9,7.3-5.8,15.7-0.1,22.6c3.3,4,9.3-1.8,5.7-5.7c-0.3-0.4-0.6-0.7-1-1
			c-0.5-0.4-1.3-0.8-1.9-0.5c-0.7,0.3-1.3,0.6-2,0.9c2,0.8,4,1.6,6,2.4c-1.8-6-3-11.7-2.5-18.1C113.9,25.4,110.3,25.4,109.4,27.5
			L109.4,27.5z"/>
	</g>
	<g>
		<path class="st0" d="M108.1,15.6c0.4,0,0.9,0,1.4-0.1c0.4-0.1,0.6-0.3,0.9-0.5c0.5-0.3,0.9-0.8,0.8-1.4c0-0.3,0-0.7-0.1-1
			c-0.1-0.4-0.4-0.8-0.6-1.1c-0.5-0.8-1.4-1.4-2.4-1.4c-1,0-1.9,0.5-2.4,1.4c-0.5,0.8-0.5,1.9,0,2.8C106.2,15,107.2,15.6,108.1,15.6
			L108.1,15.6z"/>
	</g>
	<g>
		<path class="st0" d="M120.5,27.3c-0.2,3.1-0.3,6.1-0.2,9.2c0.1,3,0.8,6.1,0.5,9.1c-0.4,4.5,6.7,5.3,7.8,1c0.7-2.6,1.2-5.3,2-7.9
			c0.7-2.3,1.5-6,3.4-7.6c-1,0.3-2,0.5-3,0.8c0.3,0.1,0.6,0.1,0.9,0.2c-0.6-0.5-1.3-1-1.9-1.4c0.9,1.2,0.8,3.2,1.1,4.6
			c0.4,1.8,0.9,3.5,1.5,5.2c1,3.1,1.6,6,5.1,7c1.3,0.4,2.8-0.3,3.5-1.4c2.3-3.9-1-8.8-2.6-12.5c-1.3-2.9-2.4-7.7-6.3-7.7
			c-3.7,0-6.1,4.1-7.7,6.9c-2.2,3.9-3.7,8.3-3.7,12.8c2.5-0.7,4.9-1.3,7.4-2c-2.9-4.3-3.4-11.3-3.7-16.3
			C124.3,24.7,120.7,24.7,120.5,27.3L120.5,27.3z"/>
	</g>
	<g>
		<path class="st0" d="M153.6,36.7c3.6-0.9,4.6-4.7,3.6-8c-0.3-1-1.1-2.1-2.2-2.2c-5.5-0.8-12.3,4.9-10.8,10.9
			c2,8.2,12.7,1.8,17.1,0.5c-1.5-1.9-3-3.8-4.4-5.8c-3.6,4.9-4,12-3.2,17.8c0.4,2.9,1.2,5.6,2.1,8.4c0.6,1.9,3.3,7.1,2.6,9.2
			c-0.6,1.9-4.6,1.8-6.5,1.7c-1.3-0.1-4.2-0.2-4.8-1.9c-0.6-1.6,1.3-3.2,2.2-4.1c4.3-4.4,10.1-6.7,14.4-11c1.9-1.9,0.4-4.7-2-4.9
			c-8.4-0.6-18.6,7.1-22.5,14.3c-4.9,9.1,4.2,16.6,12.7,17.1c8.9,0.5,17.8-2.9,16.4-13.3c-0.7-5.3-3.3-10.1-4.5-15.2
			c-1.3-5.6,0.1-10.6,0.5-16.1c0.2-3.4-4.5-5.2-6.7-2.8c-0.9,1-6,4.5-7.5,3.2c0.3,0.8,0.7,1.6,1,2.4c-0.1-1.7,1.1-4.3,3.2-4.2
			c-0.9-0.5-1.8-1.1-2.8-1.6c0.2,0.6,0.2,1.2,0.1,1.8C149.9,34.6,151.3,37.3,153.6,36.7L153.6,36.7z"/>
	</g>
	<g>
		<path class="st0" d="M158.6,18.7c-0.5,2-1,3.9-1.4,5.9c-0.3,1.7-0.5,3.3,0.6,4.7c0.4,0.4,1.1,0.5,1.6,0.2c1.5-1,1.8-2.7,2-4.3
			c0.3-2,0.4-4,0.5-6.1C162.1,17.2,159,16.8,158.6,18.7L158.6,18.7z"/>
	</g>
	<g>
		<path class="st0" d="M179.2,27.5c0.9-3.6-0.8-10.3-5.8-7.8c-5.5,2.8-10.5,10.8-10.2,17c0.3,5.7,6.2,10.8,11.8,8.1
			c6.7-3.1,6-12.2,7.5-18.2c-1.1-0.2-2.2-0.3-3.4-0.5c-0.8,6.8-0.8,17.5,6.6,20.6c2.2,0.9,3.8-1.7,3.5-3.5c-0.5-3-2.5-5.4-3.7-8.2
			c-1.2-3-2.1-6.2-3.1-9.3c-0.5-1.5-2.8-1.7-3.3,0c-0.8,2.8-2.4,5.1-3.9,7.6c-0.8,1.3-2.8,6.7-5,4.1c-1.5-1.8,0.7-6.1,1.6-7.7
			c1.2-2.2,5.6-11,5.6-2.3C177.5,28.2,179,28.4,179.2,27.5L179.2,27.5z"/>
	</g>
	<g>
		<path d="M15.1,71.5c-1,8.5,1.5,16.8,4.4,24.7c1.4,3.9,3,7.7,4.6,11.6c1.3,3.1,2.5,6.9,5.7,8.2c0.7,0.3,1.5-0.2,1.9-0.8
			c1.8-2.8,0.3-6.4-0.6-9.3c-1.3-3.9-3-7.7-4.6-11.6C23.4,86.7,21,78.9,18.9,71C18.3,68.7,15.3,69.4,15.1,71.5L15.1,71.5z"/>
	</g>
	<g>
		<path d="M18.7,78c3.7-2.4,7.5-4.2,11.7-5.4c0.9-0.3,1.8-0.5,2.7-0.7c2.8-0.6,3-1.1,4.5,1.8c1.3,2.5,1.4,2.1,0.3,4
			c-0.5,0.9-1.2,1.8-1.8,2.7c-5.1,6.7-11.9,12.2-19.3,16.1c1.4,1.8,2.8,3.6,4.1,5.3c4.7-5.1,10.9-8.3,18-7.3
			c1.2,0.2,3.5,0.4,4.5,1.3c2,1.9-0.9,4.1-2.5,5.4c-3,2.5-7.1,3.9-9.2,7.3c-1.4,2.3,0.5,5.1,3,5.2c5.8,0.2,13.3-6.9,16.2-11.5
			c3.5-5.7,0.8-11.2-5.1-13.6c-10.5-4.3-23.9-0.5-30.2,9c-1.9,2.8,1.9,6.6,4.7,4.7c5.7-3.9,11.3-8.3,16-13.4
			c3.6-3.9,7.8-8.7,8.4-14.2c0.5-5.1-3.8-8-8.6-7.4c-6.4,0.9-13.1,5.2-18.2,9C16.8,77.1,17.6,78.6,18.7,78L18.7,78z"/>
	</g>
	<g>
		<path d="M53.6,73.9c2,7,5,13.5,8.1,20.1c3,6.3,5.8,12.8,9.1,18.9c0.9,1.8,3.1,1.7,4.5,0.6c2.5-2,1.9-4.7,0.7-7.3
			c-1.7-3.9-3.9-7.7-5.9-11.5c-4-7.6-8-15.3-13.3-22.2C55.7,71,53,71.8,53.6,73.9L53.6,73.9z"/>
	</g>
	<g>
		<path d="M75.9,89c-0.5,9.2,5.3,17.6,14.4,19.8c9.9,2.4,19.1-2.9,18-13.9c-0.9-9-7.4-17.2-17.2-15.6c-7.7,1.3-15.2,11.1-9.9,18.4
			c1.1,1.5,3.4,1.4,4-0.5c1.2-4,1.5-9.4,6.1-10.9c6-2,8.9,4.4,9.1,9.3c0.1,2.5-0.2,4.7-2.6,5.8c-2.4,1-5.6,0.8-8,0
			c-5.4-1.8-8.8-6.8-9.2-12.3C80.4,86,76.1,86,75.9,89L75.9,89z"/>
	</g>
	<g>
		<path d="M132.2,94.5c1.3-5.3-3.8-9.1-8.8-8.6c-6.4,0.6-13.3,7-14.1,13.4c-1.1,8.8,8.3,9.9,14.9,9.1c7.2-0.9,13.9-4.7,16.9-11.6
			c1.8-4.1-3.8-7.7-6.2-3.6c-3.7,6.3-1.8,12.6-1,19.4c0.4,3.2,0.4,6.5-2.6,8.4c-2.1,1.3-7.5,3.1-9.5,0.9c-2.1-2.4,0.3-5.5,2.5-6.7
			c3.1-1.7,6.9-0.9,10.1,0.1c6.5,2.1,13.5,7.7,20.6,5.7c3.2-0.9,3.4-4.9,0.9-6.6c-2.3-1.6-4.8-2.2-7.3-3.1c-2.9-1-5.6-2.2-8.5-3.2
			c-4.9-1.7-10-2.6-15.1-1.5c-8.8,1.8-15.9,11.4-10.8,20.1c5.2,8.9,20,6.4,25.8-0.5c3.2-3.8,3.8-8.8,3.3-13.5
			c-0.6-5.5-3.4-11.2-1.7-16.7c-2.3-0.6-4.6-1.3-6.9-1.9c-1.8,6.4-9.1,7.7-14.9,7.3c-4.3-0.3-2.1-4.4-0.5-6.6c0.8-1.1,1.7-2,2.7-2.8
			c0.6-0.5,1.2-0.9,1.9-1.2c2.5-1.7,4.6-0.6,6.2,3.2C129.6,95.4,131.9,96.1,132.2,94.5L132.2,94.5z"/>
	</g>
	<g>
		<path d="M133.9,79.8c-3.5,2.1-10.2,7.9-7.1,12.5c0.7,1.1,2,1.7,3.3,1.3c2.5-0.7,3-2.7,4.2-4.7c0.9-1.6,2-3.2,3.2-4.5
			C139.6,82,136.8,78.1,133.9,79.8L133.9,79.8z"/>
	</g>
</g>
</svg>
